<svg width="44" height="24" viewBox="0 0 44 24" fill="none" xmlns="http://www.w3.org/2000/svg">
<path d="M2 10.5C1.17157 10.5 0.5 11.1716 0.5 12C0.5 12.8284 1.17157 13.5 2 13.5L2 10.5ZM43.0607 13.0607C43.6464 12.4749 43.6464 11.5251 43.0607 10.9393L33.5147 1.3934C32.9289 0.807615 31.9792 0.807614 31.3934 1.3934C30.8076 1.97919 30.8076 2.92893 31.3934 3.51472L39.8787 12L31.3934 20.4853C30.8076 21.0711 30.8076 22.0208 31.3934 22.6066C31.9792 23.1924 32.9289 23.1924 33.5147 22.6066L43.0607 13.0607ZM2 13.5L42 13.5L42 10.5L2 10.5L2 13.5Z" fill="#A09E9E"/>
</svg>
