<svg width="44" height="24" viewBox="0 0 44 24" fill="none" xmlns="http://www.w3.org/2000/svg">
<path d="M42 10.5C42.8284 10.5 43.5 11.1716 43.5 12C43.5 12.8284 42.8284 13.5 42 13.5L42 10.5ZM0.93934 13.0607C0.353553 12.4749 0.353553 11.5251 0.93934 10.9393L10.4853 1.3934C11.0711 0.807615 12.0208 0.807614 12.6066 1.3934C13.1924 1.97919 13.1924 2.92893 12.6066 3.51472L4.12132 12L12.6066 20.4853C13.1924 21.0711 13.1924 22.0208 12.6066 22.6066C12.0208 23.1924 11.0711 23.1924 10.4853 22.6066L0.93934 13.0607ZM42 13.5L2 13.5L2 10.5L42 10.5L42 13.5Z" fill="url(#paint0_linear_32_991)"/>
<defs>
<linearGradient id="paint0_linear_32_991" x1="49.5" y1="-0.999999" x2="-0.999998" y2="19" gradientUnits="userSpaceOnUse">
<stop stop-color="#F3D27E"/>
<stop offset="1" stop-color="#A45A2C"/>
</linearGradient>
</defs>
</svg>
